<svg xmlns="http://www.w3.org/2000/svg" width="433.048" height="160" viewBox="0 0 433.048 160" role="img"><title>窗多多</title><g fill="#18213B"><defs><clipPath id="zh-cut-0"><path d="M-2 -2 H127.88645161290323 L139.80645161290323 9.92 V162 H-2Z"/></clipPath><clipPath id="zh-cut-1"><path d="M146.80645161290323 -2 H275.50747138397503 L287.42747138397505 10.585972944849116 V162 H146.80645161290323Z"/></clipPath><clipPath id="zh-cut-2"><path d="M294.42747138397505 -2 H423.12849115504685 L435.04849115504686 10.585972944849116 V162 H294.42747138397505Z"/></clipPath></defs><g><path d="M74.38584807492195 42.95525494276794C89.94464099895941 49.11550468262226 110.3933402705515 59.43808532778354 121.50676378772113 66.9302809573361H69.49594172736732C72.0149843912591 62.9344432882414 74.68220603537982 58.60561914672215 77.34942767950052 53.94380853277835L54.23350676378772 49.94797086368365C52.60353798126951 55.10926118626429 50.08449531737774 61.26951092611861 47.269094693028094 66.9302809573361H17.633298647242455C33.48844953173778 61.43600416233089 50.82539021852237 52.77835587929239 64.45785639958378 42.95525494276794L50.38085327783559 31.30072840790841H85.79562955254943ZM52.0108220603538 5.494276795005192 54.52986472424558 12.986472424557746H2.5190426638917804V44.453694068678445H19.115088449531736C12.447034339229969 46.784599375650345 5.927159209157128 48.61602497398542 0.0 49.94797086368365L10.224349635796045 69.261186264308L14.077003121748177 68.09573361082205V159.33402705515087H36.00749219562955V156.0041623309053H99.72445369406869V158.3350676378772H122.69219562955256V67.76274713839749L123.43309053069719 68.26222684703433L137.8064516129032 52.94484911550467C132.9165452653486 49.781477627471375 126.24849115504684 46.11862643080124 118.98772112382935 42.622268470343386H133.95379812695109V12.986472424557746H80.46118626430801C78.8312174817898 8.491155046826208 77.05306971904267 3.829344432882408 75.42310093652445 0.0ZM36.00749219562955 139.18834547346512V127.5338189386056C38.526534859521334 130.86368366285117 41.4901144640999 135.69198751300726 42.97190426638918 139.18834547346512ZM51.71446409989594 84.24557752341309C48.899063475546306 90.90530697190425 43.86097814776275 97.39854318418313 36.00749219562955 102.72632674297606V83.74609781477626H99.72445369406869V139.18834547346512H46.2318418314256C55.71529656607701 136.3579604578564 64.6060353798127 132.52861602497399 72.4595213319459 127.36732570239333C79.12757544224766 130.86368366285117 85.20291363163372 134.36004162330903 89.20374609781477 137.35691987513007L99.57627471383975 124.86992715920914C95.87180020811655 122.37252861602497 90.83371488033299 119.54214360041622 85.35109261186264 116.87825182101976C91.13007284079085 111.05098855359 95.72362122788762 104.05827263267429 99.13173777315296 95.90010405827262L88.61103017689906 90.5723204994797L85.6474505723205 91.2382934443288H64.75421436004163L66.68054110301769 86.90946930280955ZM48.75088449531738 116.5452653485952 55.27075962539022 119.20915712799166C49.19542143600417 122.0395421436004 42.67554630593133 124.20395421436002 36.00749219562955 125.70239334027053V104.72424557752339C39.4156087408949 107.0551508844953 43.56462018730489 111.38397502601455 45.78730489073882 114.71383975026014C49.9363163371488 111.55046826222684 53.49261186264308 108.22060353798125 56.45619146722164 104.55775234131113H75.57127991675338C73.94131113423518 106.38917793964619 72.0149843912591 108.22060353798125 70.08865764828305 109.88553590010405C65.93964620187305 108.22060353798125 61.938813735691994 106.72216441207075 58.382518210197716 105.39021852237252ZM24.153173777315295 42.622268470343386V31.30072840790841H48.00998959417274C40.89739854318419 35.79604578563995 32.451196670135275 39.625390218522355 24.153173777315295 42.622268470343386ZM92.61186264308013 31.30072840790841H111.13423517169615V38.95941727367324C104.76253902185223 36.1290322580645 98.39084287200832 33.46514047866805 92.61186264308013 31.30072840790841Z" clip-path="url(#zh-cut-0)"/><path d="M200.52091571279917 117.54422476586888C203.48449531737774 120.04162330905305 206.8926118626431 123.03850156087408 210.00437044745058 126.20187304890737C192.3710718002081 132.1956295525494 171.47783558792923 135.3590010405827 148.80645161290323 136.69094693028094C152.21456815816856 142.68470343392298 155.77086368366284 153.34027055150884 157.25265348595212 160.0C216.67242455775232 154.17273673257023 264.3860561914672 137.68990634755463 285.427471383975 86.07700312174816L270.4613943808533 76.58688865764827L266.60874089490113 77.75234131113422H245.41914672216438C248.38272632674295 74.42247658688865 251.1981269510926 70.92611862643079 254.01352757544225 67.26326742976066L233.2684703433923 61.93548387096773C247.4936524453694 51.779396462018724 259.19979188345474 38.79292403746096 267.20145681581687 22.64308012486991L252.97627471383976 13.319458896982297L249.41997918834545 14.318418314255979H222.15504682622267L229.1194588969823 6.6597294484911345L206.00353798126952 0.6659729448491021C195.63100936524452 13.319458896982297 177.99771071800208 26.305931321540044 153.9927159209157 35.62955254942767C158.7344432882414 39.292403746097804 165.40249739854318 47.45057232049946 168.51425598335067 52.94484911550467C179.33132154006242 47.61706555671175 189.11113423517168 41.78980228928198 197.85369406867846 35.46305931321538H232.08303850156085C226.15587929240374 41.29032258064515 219.04328824141518 46.28511966701352 211.189802289282 50.78043704474504C207.040790842872 46.784599375650345 202.4472424557752 42.78876170655566 198.5945889698231 39.625390218522355L182.44308012486994 50.78043704474504C185.25848074921956 53.44432882414151 188.51841831425597 56.441207075962524 191.63017689906349 59.60457856399583C178.88678459937563 64.26638917793963 165.10613943808534 67.76274713839749 150.88095733610822 69.92715920915711C154.58543184183142 75.08844953173777 158.88262226847033 84.91155046826222 160.8089490114464 91.07180020811654C184.66576482830385 86.24349635796045 207.33714880332985 78.58480749219562 226.4522372528616 66.59729448491154C214.59791883454733 80.58272632674297 195.4828303850156 93.56919875130072 168.06971904266388 102.55983350676377C172.51508844953173 106.72216441207075 178.5904266389178 115.7127991675338 181.10946930280957 121.37356919875128C196.81644120707597 114.88033298647241 210.30072840790842 107.55463059313215 221.8586888657648 99.06347554630591H251.93902185223726C246.30822060353796 106.05619146722162 239.1956295525494 111.8834547346514 231.04578563995835 116.71175858480748C226.89677419354837 112.88241415192506 222.30322580645162 109.05306971904265 218.30239334027056 106.05619146722162Z" clip-path="url(#zh-cut-1)"/><path d="M348.14193548387095 117.54422476586888C351.1055150884495 120.04162330905305 354.5136316337149 123.03850156087408 357.6253902185224 126.20187304890737C339.9920915712799 132.1956295525494 319.09885535900105 135.3590010405827 296.42747138397505 136.69094693028094C299.8355879292404 142.68470343392298 303.3918834547347 153.34027055150884 304.87367325702394 160.0C364.29344432882414 154.17273673257023 412.00707596253903 137.68990634755463 433.0484911550468 86.07700312174816L418.0824141519251 76.58688865764827L414.22976066597295 77.75234131113422H393.0401664932362C396.00374609781477 74.42247658688865 398.8191467221644 70.92611862643079 401.63454734651407 67.26326742976066L380.88949011446414 61.93548387096773C395.11467221644125 51.779396462018724 406.82081165452655 38.79292403746096 414.8224765868887 22.64308012486991L400.5972944849116 13.319458896982297L397.04099895941727 14.318418314255979H369.7760665972945L376.74047866805415 6.6597294484911345L353.62455775234133 0.6659729448491021C343.25202913631637 13.319458896982297 325.61873048907387 26.305931321540044 301.61373569198753 35.62955254942767C306.35546305931325 39.292403746097804 313.023517169615 47.45057232049946 316.1352757544225 52.94484911550467C326.95234131113426 47.61706555671175 336.7321540062435 41.78980228928198 345.4747138397503 35.46305931321538H379.70405827263266C373.7768990634755 41.29032258064515 366.664308012487 46.28511966701352 358.8108220603538 50.78043704474504C354.6618106139438 46.784599375650345 350.068262226847 42.78876170655566 346.21560874089494 39.625390218522355L330.06409989594175 50.78043704474504C332.87950052029134 53.44432882414151 336.1394380853278 56.441207075962524 339.2511966701353 59.60457856399583C326.50780437044745 64.26638917793963 312.72715920915715 67.76274713839749 298.50197710718004 69.92715920915711C302.2064516129032 75.08844953173777 306.50364203954217 84.91155046826222 308.42996878251824 91.07180020811654C332.28678459937566 86.24349635796045 354.95816857440167 78.58480749219562 374.0732570239334 66.59729448491154C362.21893860561914 80.58272632674297 343.10385015608745 93.56919875130072 315.6907388137357 102.55983350676377C320.13610822060355 106.72216441207075 326.2114464099896 115.7127991675338 328.73048907388136 121.37356919875128C344.4374609781478 114.88033298647241 357.92174817898024 107.55463059313215 369.4797086368366 99.06347554630591H399.5600416233091C393.9292403746098 106.05619146722162 386.8166493236212 111.8834547346514 378.66680541103017 116.71175858480748C374.5177939646202 112.88241415192506 369.92424557752344 109.05306971904265 365.92341311134237 106.05619146722162Z" clip-path="url(#zh-cut-2)"/></g></g></svg>
